<?xml version="1.0" encoding="UTF-8" standalone="no"?>
<!DOCTYPE svg PUBLIC "-//W3C//DTD SVG 1.1//EN" "http://www.w3.org/Graphics/SVG/1.1/DTD/svg11.dtd">
<svg version="1.1" xmlns="http://www.w3.org/2000/svg" xmlns:xlink="http://www.w3.org/1999/xlink" preserveAspectRatio="xMidYMid meet" viewBox="0 0 20 78" width="20" height="78"><defs><path d="M6.68 18.89C6.68 18.89 7.17 13.48 7.17 13.48C7.17 13.43 7.18 13.28 7.19 13.05C7.13 12.24 7.1 11.73 7.08 11.53C7.08 11.53 7.08 9.77 7.08 9.77C7.1 9.46 7.15 8.83 7.18 8.38C7.18 8.29 7.18 8.2 7.17 8.11C7.03 7.01 6.77 4.93 6.67 4.11C6.57 3.32 7.19 2.62 7.99 2.62C9.09 2.62 11.09 2.62 12.25 2.62C12.92 2.62 13.44 3.21 13.36 3.88C13.29 4.46 13.1 5.92 12.81 8.24L12.81 10.65L12.81 13.05C12.81 13.07 12.82 13.09 12.82 13.09C12.82 13.09 13.41 19.32 13.41 19.32C13.43 19.54 13.35 18.7 13.41 19.32C13.47 19.9 13.01 20.41 12.42 20.41C11.23 20.41 9.11 20.41 8.01 20.41C7.2 20.41 6.58 19.7 6.68 18.89C6.75 18.35 6.64 19.19 6.68 18.89Z" id="e5dXEjvwR"></path><path d="M7.19 21.47L7.19 70.75L12.81 75.56L12.81 21.47L7.19 21.47Z" id="a2AaCzs3BM"></path><path d="M1.56 19.06L2.97 21.47L5.78 21.47L14.22 21.47L17.03 21.47L18.44 19.06L12.81 20.27L7.19 20.27L1.56 19.06Z" id="e9kgxTg0P"></path></defs><g><g><g><use xlink:href="#e5dXEjvwR" opacity="1" fill="#575757" fill-opacity="1"></use><g><use xlink:href="#e5dXEjvwR" opacity="1" fill-opacity="0" stroke="#151515" stroke-width="1" stroke-opacity="1"></use></g></g><g><use xlink:href="#a2AaCzs3BM" opacity="1" fill="#c5c5c5" fill-opacity="1"></use><g><use xlink:href="#a2AaCzs3BM" opacity="1" fill-opacity="0" stroke="#898989" stroke-width="1" stroke-opacity="1"></use></g></g><g><use xlink:href="#e9kgxTg0P" opacity="1" fill="#141414" fill-opacity="1"></use><g><use xlink:href="#e9kgxTg0P" opacity="1" fill-opacity="0" stroke="#363636" stroke-width="1" stroke-opacity="1"></use></g></g></g></g></svg>