<?xml version="1.0" encoding="UTF-8" standalone="no"?>
<!DOCTYPE svg PUBLIC "-//W3C//DTD SVG 1.1//EN" "http://www.w3.org/Graphics/SVG/1.1/DTD/svg11.dtd">
<svg version="1.1" xmlns="http://www.w3.org/2000/svg" xmlns:xlink="http://www.w3.org/1999/xlink" preserveAspectRatio="xMidYMid meet" viewBox="0 0 20 78" width="20" height="78"><defs><path d="M6.94 21.54C7.46 19.62 7.76 17.65 7.85 15.67C7.85 15.52 7.87 15.16 7.89 14.57C7.78 13.42 7.71 12.7 7.68 12.41C7.68 12.41 7.47 10.48 7.47 10.48C7.38 9.74 7.14 7.81 7.04 6.9C7.04 6.9 7 6.61 7 6.61C6.85 5.49 6.59 3.62 6.49 2.84C6.35 1.87 7.11 1.01 8.08 1.01C9.28 1.01 11.24 1.01 12.49 1.01C13.31 1.01 13.95 1.74 13.84 2.56C13.76 3.12 13.57 4.52 13.27 6.76L12.71 11.45L12.64 14.57C12.61 14.99 12.6 15.26 12.59 15.36C12.43 17.63 12.7 19.91 13.39 22.07C13.52 22.48 13.38 22.04 13.64 22.85C13.84 23.49 13.37 24.13 12.7 24.13C11.41 24.13 9.3 24.13 8.12 24.13C7.17 24.13 6.48 23.23 6.73 22.32C6.92 21.59 6.8 22.06 6.94 21.54Z" id="c8vELmQIDK"></path><path d="M7.02 25.51L7.02 38.89L9.17 74.14L9.92 77.07L11.94 75.54L13.27 38.89L13.27 25.51L7.02 25.51Z" id="f4Q1i3GLYb"></path><path d="M4.67 20.43L0.77 22.38L2.33 25.51L6.63 28.24L7.41 25.51L12.88 25.51L13.66 28.24L17.96 25.51L19.52 22.38L16.39 20.43L12.88 23.17L7.41 23.17L4.67 20.43Z" id="aAKEUVUhn"></path></defs><g><g><g><use xlink:href="#c8vELmQIDK" opacity="1" fill="#575757" fill-opacity="1"></use><g><use xlink:href="#c8vELmQIDK" opacity="1" fill-opacity="0" stroke="#151515" stroke-width="1" stroke-opacity="1"></use></g></g><g><use xlink:href="#f4Q1i3GLYb" opacity="1" fill="#c5c5c5" fill-opacity="1"></use><g><use xlink:href="#f4Q1i3GLYb" opacity="1" fill-opacity="0" stroke="#898989" stroke-width="1" stroke-opacity="1"></use></g></g><g><use xlink:href="#aAKEUVUhn" opacity="1" fill="#141414" fill-opacity="1"></use><g><use xlink:href="#aAKEUVUhn" opacity="1" fill-opacity="0" stroke="#363636" stroke-width="1" stroke-opacity="1"></use></g></g></g></g></svg>