<?xml version="1.0" encoding="UTF-8" standalone="no"?>
<!DOCTYPE svg PUBLIC "-//W3C//DTD SVG 1.1//EN" "http://www.w3.org/Graphics/SVG/1.1/DTD/svg11.dtd">
<svg version="1.1" xmlns="http://www.w3.org/2000/svg" xmlns:xlink="http://www.w3.org/1999/xlink" preserveAspectRatio="xMidYMid meet" viewBox="0 0 20 78" width="20" height="78"><defs><path d="M6.94 20.64C7.46 18.72 7.72 16.75 7.73 14.77C7.73 14.62 7.73 14.26 7.74 13.67C7.65 12.39 7.59 11.6 7.57 11.28C7.57 11.28 7.54 9.44 7.54 9.44C7.57 8.73 7.66 6.89 7.7 6.02C7.7 5.93 7.7 5.84 7.69 5.75C7.59 4.8 7.34 2.28 7.24 1.38C7.22 1.18 7.38 1.01 7.58 1.01C8.7 1.01 11.6 1.01 12.7 1.01C12.97 1.01 13.18 1.24 13.14 1.51C13.07 2.1 12.9 3.55 12.61 5.88L12.71 10.55L12.39 13.81C12.39 14.15 12.39 14.37 12.39 14.45C12.36 16.73 12.7 19 13.39 21.17C13.52 21.58 13.38 21.14 13.64 21.95C13.84 22.59 13.37 23.23 12.7 23.23C11.41 23.23 9.3 23.23 8.12 23.23C7.17 23.23 6.48 22.33 6.73 21.42C6.92 20.69 6.8 21.16 6.94 20.64Z" id="bl7plwnyh"></path><path d="M7.02 24.61L8.27 33.49L9.13 73.52L9.92 76.17L11.25 73.52L11.71 33.74L13.27 24.61L7.02 24.61Z" id="a11IrMXx2U"></path><path d="M1.58 21.08C1.13 21.3 0.95 21.85 1.17 22.3C1.41 22.76 1.82 23.58 2.08 24.11C2.24 24.44 2.49 24.71 2.8 24.91C3.57 25.4 5.35 26.53 6.11 27.01C6.37 27.18 6.71 27.05 6.8 26.75C6.92 26.32 7.19 25.37 7.33 24.87C7.38 24.72 7.52 24.61 7.68 24.61C8.72 24.61 11.42 24.61 12.43 24.61C12.69 24.61 12.93 24.79 13 25.04C13.13 25.5 13.36 26.3 13.48 26.73C13.57 27.03 13.93 27.17 14.2 27C14.95 26.52 16.77 25.37 17.54 24.87C17.81 24.7 18.03 24.46 18.17 24.17C18.44 23.64 18.99 22.54 19.25 22.02C19.4 21.72 19.3 21.35 19.01 21.17C18.48 20.84 17.44 20.19 16.92 19.86C16.6 19.66 16.2 19.68 15.9 19.91C15.3 20.38 13.79 21.56 13.14 22.06C13 22.17 12.8 22.13 12.72 21.97C12.42 21.44 11.67 20.06 11.37 19.51C11.33 19.43 11.2 19.44 11.17 19.53C11.1 19.74 10.91 20.27 10.63 21.12L9.38 21.12C9.06 20.2 8.87 19.63 8.79 19.4C8.77 19.36 8.72 19.36 8.7 19.4C8.44 19.97 7.86 21.27 7.64 21.76C7.53 22 7.21 22.06 7.02 21.87C6.55 21.41 5.6 20.46 5.15 20.01C4.87 19.72 4.43 19.65 4.07 19.83C3.41 20.16 2.2 20.77 1.58 21.08Z" id="b14MWHQsV"></path></defs><g><g><g><use xlink:href="#bl7plwnyh" opacity="1" fill="#575757" fill-opacity="1"></use><g><use xlink:href="#bl7plwnyh" opacity="1" fill-opacity="0" stroke="#151515" stroke-width="1" stroke-opacity="1"></use></g></g><g><use xlink:href="#a11IrMXx2U" opacity="1" fill="#c5c5c5" fill-opacity="1"></use><g><use xlink:href="#a11IrMXx2U" opacity="1" fill-opacity="0" stroke="#898989" stroke-width="1" stroke-opacity="1"></use></g></g><g><use xlink:href="#b14MWHQsV" opacity="1" fill="#141414" fill-opacity="1"></use><g><use xlink:href="#b14MWHQsV" opacity="1" fill-opacity="0" stroke="#363636" stroke-width="1" stroke-opacity="1"></use></g></g></g></g></svg>