<?xml version="1.0" encoding="UTF-8" standalone="no"?>
<!DOCTYPE svg PUBLIC "-//W3C//DTD SVG 1.1//EN" "http://www.w3.org/Graphics/SVG/1.1/DTD/svg11.dtd">
<svg version="1.1" xmlns="http://www.w3.org/2000/svg" xmlns:xlink="http://www.w3.org/1999/xlink" preserveAspectRatio="xMidYMid meet" viewBox="0 0 200 200" width="200" height="200"><defs><path d="M187.96 105.56C187.96 160.75 148.55 169.63 100 169.63C51.45 169.63 12.04 160.75 12.04 105.56C12.04 50.36 51.45 61.81 100 61.81C148.55 61.81 187.96 50.36 187.96 105.56Z" id="e2GEb6K1G2"></path><clipPath id="clipi2Uck61rwo"><use xlink:href="#e2GEb6K1G2" opacity="1"></use></clipPath><path d="M126.87 31.57C142.47 37.09 152.35 52.46 150.91 68.93C149.76 82.09 147.91 103.22 146.54 118.79C145.7 128.39 139.09 136.51 129.86 139.27C125.78 140.48 115.6 143.53 99.3 148.4C84.09 143.71 74.58 140.78 70.78 139.61C61.15 136.64 54.27 128.13 53.4 118.09C52.04 102.66 50.24 82.09 49.09 68.93C47.65 52.46 57.53 37.09 73.13 31.57C78.5 29.67 81.07 28.76 89.68 25.71C96.36 23.35 103.64 23.35 110.32 25.71C118.93 28.76 121.5 29.67 126.87 31.57Z" id="a2isbhixAt"></path><mask id="maskb1bVSWuGYH" x="42.95" y="17.94" width="114.1" height="136.46" maskUnits="userSpaceOnUse"><rect x="42.95" y="17.94" width="114.1" height="136.46" fill="white"></rect><use xlink:href="#a2isbhixAt" opacity="1" fill="black"></use></mask><path d="M88.99 103.99C88.05 102.13 86.28 100.82 84.21 100.49C79.87 99.8 69.43 98.14 64.91 97.42C63.64 97.22 62.5 98.19 62.5 99.47C62.5 101.03 62.5 102.02 62.5 103.26C62.5 105.59 64.14 107.6 66.43 108.05C71.89 109.15 83.21 111.41 88.39 112.45C90.57 112.88 92.3 110.62 91.3 108.63C90.54 107.11 89.94 105.9 88.99 103.99Z" id="b2UZu1TTJ"></path><clipPath id="clipb6I8HINH5E"><use xlink:href="#b2UZu1TTJ" opacity="1"></use></clipPath><path d="M111.01 103.99C111.95 102.13 113.72 100.82 115.79 100.49C120.13 99.8 130.57 98.14 135.09 97.42C136.36 97.22 137.5 98.19 137.5 99.47C137.5 101.03 137.5 102.02 137.5 103.26C137.5 105.59 135.86 107.6 133.57 108.05C128.11 109.15 116.79 111.41 111.61 112.45C109.43 112.88 107.7 110.62 108.7 108.63C109.46 107.11 110.06 105.9 111.01 103.99Z" id="c5CQi1ZXg"></path><clipPath id="clipb2S15deiSZ"><use xlink:href="#c5CQi1ZXg" opacity="1"></use></clipPath><path d="M100 150L100 21.78" id="a20SUDuN5"></path></defs><g><g><g><use xlink:href="#e2GEb6K1G2" opacity="1" fill="#003e5d" fill-opacity="1"></use><g clip-path="url(#clipi2Uck61rwo)"><use xlink:href="#e2GEb6K1G2" opacity="1" fill-opacity="0" stroke="#002436" stroke-width="6" stroke-opacity="1"></use></g></g><g><use xlink:href="#a2isbhixAt" opacity="1" fill="#003e5d" fill-opacity="1"></use><g mask="url(#maskb1bVSWuGYH)"><use xlink:href="#a2isbhixAt" opacity="1" fill-opacity="0" stroke="#002436" stroke-width="6" stroke-opacity="1"></use></g></g><g><use xlink:href="#b2UZu1TTJ" opacity="1" fill="#ffe8b3" fill-opacity="1"></use><g clip-path="url(#clipb6I8HINH5E)"><use xlink:href="#b2UZu1TTJ" opacity="1" fill-opacity="0" stroke="#72674d" stroke-width="6" stroke-opacity="1"></use></g><g><use xlink:href="#b2UZu1TTJ" opacity="1" fill-opacity="0" stroke="#002436" stroke-width="3" stroke-opacity="1"></use></g></g><g><use xlink:href="#c5CQi1ZXg" opacity="1" fill="#ffe8b3" fill-opacity="1"></use><g clip-path="url(#clipb2S15deiSZ)"><use xlink:href="#c5CQi1ZXg" opacity="1" fill-opacity="0" stroke="#72674d" stroke-width="6" stroke-opacity="1"></use></g><g><use xlink:href="#c5CQi1ZXg" opacity="1" fill-opacity="0" stroke="#002436" stroke-width="3" stroke-opacity="1"></use></g></g><g><g><use xlink:href="#a20SUDuN5" opacity="1" fill-opacity="0" stroke="#002436" stroke-width="3" stroke-opacity="1"></use></g></g></g></g></svg>