<?xml version="1.0" encoding="UTF-8" standalone="no"?>
<!DOCTYPE svg PUBLIC "-//W3C//DTD SVG 1.1//EN" "http://www.w3.org/Graphics/SVG/1.1/DTD/svg11.dtd">
<svg version="1.1" xmlns="http://www.w3.org/2000/svg" xmlns:xlink="http://www.w3.org/1999/xlink" preserveAspectRatio="xMidYMid meet" viewBox="0 0 200 200" width="200" height="200"><defs><path d="M187.96 104.68C187.96 159.87 148.55 168.75 100 168.75C51.45 168.75 12.04 159.87 12.04 104.68C12.04 49.48 51.45 60.93 100 60.93C148.55 60.93 187.96 49.48 187.96 104.68Z" id="kbuTGFu6X"></path><clipPath id="clipb1ZjDOn7s"><use xlink:href="#kbuTGFu6X" opacity="1"></use></clipPath><path d="M126.87 31.57C142.47 37.09 152.35 52.46 150.91 68.93C149.76 82.09 147.91 103.22 146.54 118.79C145.7 128.39 139.09 136.51 129.86 139.27C125.78 140.48 115.6 143.53 99.3 148.4C84.09 143.71 74.58 140.78 70.78 139.61C61.15 136.64 54.27 128.13 53.4 118.09C52.04 102.66 50.24 82.09 49.09 68.93C47.65 52.46 57.53 37.09 73.13 31.57C78.5 29.67 81.07 28.76 89.68 25.71C96.36 23.35 103.64 23.35 110.32 25.71C118.93 28.76 121.5 29.67 126.87 31.57Z" id="f10NcDpET6"></path><mask id="maskaJl48yNC2" x="42.95" y="17.94" width="114.1" height="136.46" maskUnits="userSpaceOnUse"><rect x="42.95" y="17.94" width="114.1" height="136.46" fill="white"></rect><use xlink:href="#f10NcDpET6" opacity="1" fill="black"></use></mask><path d="M88.99 103.99C88.05 102.13 86.28 100.82 84.21 100.49C79.87 99.8 69.43 98.14 64.91 97.42C63.64 97.22 62.5 98.19 62.5 99.47C62.5 101.03 62.5 102.02 62.5 103.26C62.5 105.59 64.14 107.6 66.43 108.05C71.89 109.15 83.21 111.41 88.39 112.45C90.57 112.88 92.3 110.62 91.3 108.63C90.54 107.11 89.94 105.9 88.99 103.99Z" id="aETDHrhwV"></path><clipPath id="clipe19KS4XlM3"><use xlink:href="#aETDHrhwV" opacity="1"></use></clipPath><path d="M111.01 103.99C111.95 102.13 113.72 100.82 115.79 100.49C120.13 99.8 130.57 98.14 135.09 97.42C136.36 97.22 137.5 98.19 137.5 99.47C137.5 101.03 137.5 102.02 137.5 103.26C137.5 105.59 135.86 107.6 133.57 108.05C128.11 109.15 116.79 111.41 111.61 112.45C109.43 112.88 107.7 110.62 108.7 108.63C109.46 107.11 110.06 105.9 111.01 103.99Z" id="cysGy9069"></path><clipPath id="clipeRwUBbrwB"><use xlink:href="#cysGy9069" opacity="1"></use></clipPath><path d="M100 150L100 21.78" id="j4jomyvtnx"></path><path d="M63.39 111.9C71.24 115.09 68.01 113.3 76.26 115.25C76.65 115.34 90.18 117.62 90.57 117.71C90.92 117.8 91.58 118.28 92.55 119.17C94.02 120.53 94.88 122.44 94.91 124.45C94.95 127.03 95.06 133.46 95.22 143.75C86.73 141.56 81.41 140.19 79.29 139.65C73.78 138.23 68.61 135.76 64.04 132.37C63.11 131.68 67.68 135.07 66.86 134.46C62.05 130.9 58.8 125.62 57.78 119.72C57.4 117.55 56.89 114.57 56.27 110.98C56.11 110.05 57.03 109.31 57.9 109.67C56.57 109.12 58.4 109.87 63.39 111.9Z" id="bFcILsk7U"></path><path d="M136.61 111.9C128.76 115.09 131.99 113.3 123.74 115.25C123.35 115.34 109.82 117.62 109.43 117.71C109.08 117.8 108.42 118.28 107.45 119.17C105.98 120.53 105.12 122.44 105.09 124.45C105.05 127.03 104.94 133.46 104.78 143.75C113.27 141.56 118.59 140.19 120.71 139.65C126.22 138.23 131.39 135.76 135.96 132.37C136.89 131.68 132.32 135.07 133.14 134.46C137.95 130.9 141.2 125.62 142.22 119.72C142.6 117.55 143.11 114.57 143.73 110.98C143.89 110.05 142.97 109.31 142.1 109.67C143.43 109.12 141.6 109.87 136.61 111.9Z" id="h1RYczsCBc"></path><path d="M79.65 31.24C87.21 29.23 91.93 27.97 93.82 27.46C94.88 27.18 95.92 28.01 95.88 29.11C95.68 34.53 95.23 47.08 95.05 52.13C94.97 54.43 93.08 56.25 90.78 56.25C87.45 56.25 91.6 56.25 90.78 56.25C79.72 56.25 68.7 54.99 57.93 52.49C57.07 52.29 58.57 52.64 54.68 51.74C54.17 51.62 53.96 51.03 54.26 50.61C56.34 47.8 54.88 49.78 55.19 49.35C61.35 41 69.87 34.7 79.65 31.24C79.65 31.24 79.65 31.24 79.65 31.24Z" id="dTWn3zpQo"></path><path d="M120.35 31.24C112.79 29.23 108.07 27.97 106.18 27.46C105.12 27.18 104.08 28.01 104.12 29.11C104.32 34.53 104.77 47.08 104.95 52.13C105.03 54.43 106.92 56.25 109.22 56.25C112.55 56.25 108.4 56.25 109.22 56.25C120.28 56.25 131.3 54.99 142.07 52.49C142.93 52.29 141.43 52.64 145.32 51.74C145.83 51.62 146.04 51.03 145.74 50.61C143.66 47.8 145.12 49.78 144.81 49.35C138.65 41 130.13 34.7 120.35 31.24C120.35 31.24 120.35 31.24 120.35 31.24Z" id="ad79jpk6a"></path><path d="M18.75 110.65C18.75 102.57 20.01 94.54 22.48 86.85C23.25 84.42 22.31 87.37 23.2 84.6C25.22 78.29 29.74 73.09 35.7 70.2C36.93 69.6 36.42 69.85 38.93 68.63C40.32 67.95 41.96 68.91 42.05 70.45C42.18 72.54 42.49 77.74 43 86.07C44.19 92.7 44.93 96.85 45.22 98.51C45.87 102.11 46.15 105.77 46.06 109.42C46.01 111.64 45.87 117.17 45.66 126.01C44.83 137.32 44.31 144.39 44.1 147.21C43.93 149.4 41.56 150.68 39.64 149.62C38.2 148.81 38.31 148.88 36.95 148.12C33.98 146.47 31.49 144.08 29.71 141.18C28.62 139.4 29.25 140.43 28.45 139.13C25.66 134.58 23.33 129.75 21.5 124.73C20.95 123.23 22.81 128.32 22.45 127.34C20 120.64 18.75 113.56 18.75 106.43C18.75 104.83 18.75 111.96 18.75 110.65Z" id="burTRBqgN"></path><path d="M182.41 110.65C182.41 102.57 181.16 94.54 178.69 86.85C177.91 84.42 178.85 87.37 177.97 84.6C175.94 78.29 171.43 73.09 165.47 70.2C164.24 69.6 164.75 69.85 162.23 68.63C160.84 67.95 159.2 68.91 159.11 70.45C158.98 72.54 158.67 77.74 158.16 86.07C156.98 92.7 156.24 96.85 155.94 98.51C155.3 102.11 155.02 105.77 155.1 109.42C155.16 111.64 155.29 117.17 155.5 126.01C156.34 137.32 156.86 144.39 157.07 147.21C157.23 149.4 159.6 150.68 161.52 149.62C162.97 148.81 162.85 148.88 164.21 148.12C167.18 146.47 169.68 144.08 171.45 141.18C172.54 139.4 171.92 140.43 172.71 139.13C175.5 134.58 177.83 129.75 179.67 124.73C180.21 123.23 178.35 128.32 178.72 127.34C181.16 120.64 182.41 113.56 182.41 106.43C182.41 104.83 182.41 111.96 182.41 110.65Z" id="a1xxqlrXZa"></path></defs><g><g><g><use xlink:href="#kbuTGFu6X" opacity="1" fill="#f0f0f0" fill-opacity="1"></use><g clip-path="url(#clipb1ZjDOn7s)"><use xlink:href="#kbuTGFu6X" opacity="1" fill-opacity="0" stroke="#b0b0b0" stroke-width="6" stroke-opacity="1"></use></g></g><g><use xlink:href="#f10NcDpET6" opacity="1" fill="#f0f0f0" fill-opacity="1"></use><g mask="url(#maskaJl48yNC2)"><use xlink:href="#f10NcDpET6" opacity="1" fill-opacity="0" stroke="#b0b0b0" stroke-width="6" stroke-opacity="1"></use></g></g><g><use xlink:href="#aETDHrhwV" opacity="1" fill="#ffe8b3" fill-opacity="1"></use><g clip-path="url(#clipe19KS4XlM3)"><use xlink:href="#aETDHrhwV" opacity="1" fill-opacity="0" stroke="#72674d" stroke-width="6" stroke-opacity="1"></use></g><g><use xlink:href="#aETDHrhwV" opacity="1" fill-opacity="0" stroke="#b0b0b0" stroke-width="3" stroke-opacity="1"></use></g></g><g><use xlink:href="#cysGy9069" opacity="1" fill="#ffe8b3" fill-opacity="1"></use><g clip-path="url(#clipeRwUBbrwB)"><use xlink:href="#cysGy9069" opacity="1" fill-opacity="0" stroke="#72674d" stroke-width="6" stroke-opacity="1"></use></g><g><use xlink:href="#cysGy9069" opacity="1" fill-opacity="0" stroke="#b0b0b0" stroke-width="3" stroke-opacity="1"></use></g></g><g><g><use xlink:href="#j4jomyvtnx" opacity="1" fill-opacity="0" stroke="#b0b0b0" stroke-width="3" stroke-opacity="1"></use></g></g><g><use xlink:href="#bFcILsk7U" opacity="1" fill="#b9b9b9" fill-opacity="1"></use><g><use xlink:href="#bFcILsk7U" opacity="1" fill-opacity="0" stroke="#8c8c8c" stroke-width="4" stroke-opacity="1"></use></g></g><g><use xlink:href="#h1RYczsCBc" opacity="1" fill="#b9b9b9" fill-opacity="1"></use><g><use xlink:href="#h1RYczsCBc" opacity="1" fill-opacity="0" stroke="#8c8c8c" stroke-width="4" stroke-opacity="1"></use></g></g><g><use xlink:href="#dTWn3zpQo" opacity="1" fill="#b9b9b9" fill-opacity="1"></use><g><use xlink:href="#dTWn3zpQo" opacity="1" fill-opacity="0" stroke="#8c8c8c" stroke-width="4" stroke-opacity="1"></use></g></g><g><use xlink:href="#ad79jpk6a" opacity="1" fill="#b9b9b9" fill-opacity="1"></use><g><use xlink:href="#ad79jpk6a" opacity="1" fill-opacity="0" stroke="#8c8c8c" stroke-width="4" stroke-opacity="1"></use></g></g><g><use xlink:href="#burTRBqgN" opacity="1" fill="#b9b9b9" fill-opacity="1"></use><g><use xlink:href="#burTRBqgN" opacity="1" fill-opacity="0" stroke="#8c8c8c" stroke-width="4" stroke-opacity="1"></use></g></g><g><use xlink:href="#a1xxqlrXZa" opacity="1" fill="#b9b9b9" fill-opacity="1"></use><g><use xlink:href="#a1xxqlrXZa" opacity="1" fill-opacity="0" stroke="#8c8c8c" stroke-width="4" stroke-opacity="1"></use></g></g></g></g></svg>