<?xml version="1.0" encoding="UTF-8" standalone="no"?>
<!DOCTYPE svg PUBLIC "-//W3C//DTD SVG 1.1//EN" "http://www.w3.org/Graphics/SVG/1.1/DTD/svg11.dtd">
<svg version="1.1" xmlns="http://www.w3.org/2000/svg" xmlns:xlink="http://www.w3.org/1999/xlink" preserveAspectRatio="xMidYMid meet" viewBox="0 0 200 200" width="200" height="200"><defs><path d="M187.96 105.56C187.96 160.75 148.55 169.63 100 169.63C51.45 169.63 12.04 160.75 12.04 105.56C12.04 50.36 51.45 61.81 100 61.81C148.55 61.81 187.96 50.36 187.96 105.56Z" id="d27VMQowWa"></path><clipPath id="clipa3FfQFqvpi"><use xlink:href="#d27VMQowWa" opacity="1"></use></clipPath><path d="M126.87 31.57C142.47 37.09 152.35 52.46 150.91 68.93C149.76 82.09 147.91 103.22 146.54 118.79C145.7 128.39 139.09 136.51 129.86 139.27C125.78 140.48 115.6 143.53 99.3 148.4C84.09 143.71 74.58 140.78 70.78 139.61C61.15 136.64 54.27 128.13 53.4 118.09C52.04 102.66 50.24 82.09 49.09 68.93C47.65 52.46 57.53 37.09 73.13 31.57C78.5 29.67 81.07 28.76 89.68 25.71C96.36 23.35 103.64 23.35 110.32 25.71C118.93 28.76 121.5 29.67 126.87 31.57Z" id="akrejDg7G"></path><mask id="maskfaD7LCJZe" x="42.95" y="17.94" width="114.1" height="136.46" maskUnits="userSpaceOnUse"><rect x="42.95" y="17.94" width="114.1" height="136.46" fill="white"></rect><use xlink:href="#akrejDg7G" opacity="1" fill="black"></use></mask><path d="M88.99 103.99C88.05 102.13 86.28 100.82 84.21 100.49C79.87 99.8 69.43 98.14 64.91 97.42C63.64 97.22 62.5 98.19 62.5 99.47C62.5 101.03 62.5 102.02 62.5 103.26C62.5 105.59 64.14 107.6 66.43 108.05C71.89 109.15 83.21 111.41 88.39 112.45C90.57 112.88 92.3 110.62 91.3 108.63C90.54 107.11 89.94 105.9 88.99 103.99Z" id="gKTO5jwGS"></path><clipPath id="clipd4IZsfVyp"><use xlink:href="#gKTO5jwGS" opacity="1"></use></clipPath><path d="M111.01 103.99C111.95 102.13 113.72 100.82 115.79 100.49C120.13 99.8 130.57 98.14 135.09 97.42C136.36 97.22 137.5 98.19 137.5 99.47C137.5 101.03 137.5 102.02 137.5 103.26C137.5 105.59 135.86 107.6 133.57 108.05C128.11 109.15 116.79 111.41 111.61 112.45C109.43 112.88 107.7 110.62 108.7 108.63C109.46 107.11 110.06 105.9 111.01 103.99Z" id="bgtBdSWjO"></path><clipPath id="clipd2JRdaXk4w"><use xlink:href="#bgtBdSWjO" opacity="1"></use></clipPath><path d="M100 150L100 21.78" id="c3CJL33Jx0"></path><path d="M63.39 111.9C71.24 115.09 68.01 113.3 76.26 115.25C76.65 115.34 90.18 117.62 90.57 117.71C90.92 117.8 91.58 118.28 92.55 119.17C94.02 120.53 94.88 122.44 94.91 124.45C94.95 127.03 95.06 133.46 95.22 143.75C86.73 141.56 81.41 140.19 79.29 139.65C73.78 138.23 68.61 135.76 64.04 132.37C63.11 131.68 67.68 135.07 66.86 134.46C62.05 130.9 58.8 125.62 57.78 119.72C57.4 117.55 56.89 114.57 56.27 110.98C56.11 110.05 57.03 109.31 57.9 109.67C56.57 109.12 58.4 109.87 63.39 111.9Z" id="a1cF3SMQtN"></path><path d="M136.61 111.9C128.76 115.09 131.99 113.3 123.74 115.25C123.35 115.34 109.82 117.62 109.43 117.71C109.08 117.8 108.42 118.28 107.45 119.17C105.98 120.53 105.12 122.44 105.09 124.45C105.05 127.03 104.94 133.46 104.78 143.75C113.27 141.56 118.59 140.19 120.71 139.65C126.22 138.23 131.39 135.76 135.96 132.37C136.89 131.68 132.32 135.07 133.14 134.46C137.95 130.9 141.2 125.62 142.22 119.72C142.6 117.55 143.11 114.57 143.73 110.98C143.89 110.05 142.97 109.31 142.1 109.67C143.43 109.12 141.6 109.87 136.61 111.9Z" id="c15UUPJFNU"></path><path d="M79.65 31.24C87.21 29.23 91.93 27.97 93.82 27.46C94.88 27.18 95.92 28.01 95.88 29.11C95.68 34.53 95.23 47.08 95.05 52.13C94.97 54.43 93.08 56.25 90.78 56.25C87.45 56.25 91.6 56.25 90.78 56.25C79.72 56.25 68.7 54.99 57.93 52.49C57.07 52.29 58.57 52.64 54.68 51.74C54.17 51.62 53.96 51.03 54.26 50.61C56.34 47.8 54.88 49.78 55.19 49.35C61.35 41 69.87 34.7 79.65 31.24C79.65 31.24 79.65 31.24 79.65 31.24Z" id="bqhUworXN"></path><path d="M120.35 31.24C112.79 29.23 108.07 27.97 106.18 27.46C105.12 27.18 104.08 28.01 104.12 29.11C104.32 34.53 104.77 47.08 104.95 52.13C105.03 54.43 106.92 56.25 109.22 56.25C112.55 56.25 108.4 56.25 109.22 56.25C120.28 56.25 131.3 54.99 142.07 52.49C142.93 52.29 141.43 52.64 145.32 51.74C145.83 51.62 146.04 51.03 145.74 50.61C143.66 47.8 145.12 49.78 144.81 49.35C138.65 41 130.13 34.7 120.35 31.24C120.35 31.24 120.35 31.24 120.35 31.24Z" id="c5kojMiBVN"></path><path d="M18.75 110.65C18.75 102.57 20.01 94.54 22.48 86.85C23.25 84.42 22.31 87.37 23.2 84.6C25.22 78.29 29.74 73.09 35.7 70.2C36.93 69.6 36.42 69.85 38.93 68.63C40.32 67.95 41.96 68.91 42.05 70.45C42.18 72.54 42.49 77.74 43 86.07C44.19 92.7 44.93 96.85 45.22 98.51C45.87 102.11 46.15 105.77 46.06 109.42C46.01 111.64 45.87 117.17 45.66 126.01C44.83 137.32 44.31 144.39 44.1 147.21C43.93 149.4 41.56 150.68 39.64 149.62C38.2 148.81 38.31 148.88 36.95 148.12C33.98 146.47 31.49 144.08 29.71 141.18C28.62 139.4 29.25 140.43 28.45 139.13C25.66 134.58 23.33 129.75 21.5 124.73C20.95 123.23 22.81 128.32 22.45 127.34C20 120.64 18.75 113.56 18.75 106.43C18.75 104.83 18.75 111.96 18.75 110.65Z" id="b2LlcoAsg"></path><path d="M182.41 110.65C182.41 102.57 181.16 94.54 178.69 86.85C177.91 84.42 178.85 87.37 177.97 84.6C175.94 78.29 171.43 73.09 165.47 70.2C164.24 69.6 164.75 69.85 162.23 68.63C160.84 67.95 159.2 68.91 159.11 70.45C158.98 72.54 158.67 77.74 158.16 86.07C156.98 92.7 156.24 96.85 155.94 98.51C155.3 102.11 155.02 105.77 155.1 109.42C155.16 111.64 155.29 117.17 155.5 126.01C156.34 137.32 156.86 144.39 157.07 147.21C157.23 149.4 159.6 150.68 161.52 149.62C162.97 148.81 162.85 148.88 164.21 148.12C167.18 146.47 169.68 144.08 171.45 141.18C172.54 139.4 171.92 140.43 172.71 139.13C175.5 134.58 177.83 129.75 179.67 124.73C180.21 123.23 178.35 128.32 178.72 127.34C181.16 120.64 182.41 113.56 182.41 106.43C182.41 104.83 182.41 111.96 182.41 110.65Z" id="a9Bz8OeUR"></path><path d="M68.32 160.7C66.37 160.37 64.48 159.74 62.72 158.84C61.37 158.14 60.39 157.64 59.14 157C57.2 156.01 56.07 153.94 56.27 151.77C56.51 149.28 56.72 147.12 56.91 145.06C57.17 142.36 60.12 140.82 62.49 142.14C65.05 143.58 68.52 145.53 71.29 147.08C73.97 148.58 76.85 149.69 79.84 150.37C82.99 151.09 87.69 152.16 90.78 152.87C93.7 153.53 95.94 155.87 96.48 158.81C96.68 159.89 96.71 160.08 96.99 161.61C97.23 162.91 96.17 164.07 94.86 163.95C91.63 163.66 86.02 163.15 83.16 162.89C83.16 162.89 74.38 161.74 74.38 161.74C72.58 161.43 70.41 161.06 68.32 160.7Z" id="ecy5nS3l"></path><path d="M131.68 160.7C133.63 160.37 135.52 159.74 137.28 158.84C138.63 158.14 139.61 157.64 140.86 157C142.8 156.01 143.93 153.94 143.73 151.77C143.49 149.28 143.28 147.12 143.09 145.06C142.83 142.36 139.88 140.82 137.51 142.14C134.95 143.58 131.48 145.53 128.71 147.08C126.03 148.58 123.15 149.69 120.16 150.37C117.01 151.09 112.31 152.16 109.22 152.87C106.3 153.53 104.06 155.87 103.52 158.81C103.32 159.89 103.29 160.08 103.01 161.61C102.77 162.91 103.83 164.07 105.14 163.95C108.37 163.66 113.98 163.15 116.84 162.89C116.84 162.89 125.62 161.74 125.62 161.74C127.42 161.43 129.59 161.06 131.68 160.7Z" id="b9JlpEvgVV"></path><path d="M62.26 90.83C60.73 90.55 59.4 89.63 58.61 88.29C57.62 86.63 56.25 84.3 55.35 82.78C54.26 80.93 53.64 78.85 53.54 76.71C53.37 72.72 53.07 66 52.91 62.51C52.79 59.72 55.49 57.66 58.15 58.51C61.21 59.49 66.42 61.15 69.86 62.25C72.26 63.02 74.75 63.41 77.27 63.4C80.55 63.39 86.09 63.39 89.25 63.38C91.71 63.38 93.71 65.37 93.72 67.83C93.73 70.01 93.74 73.74 93.75 76.33C93.75 76.33 93.69 81.07 93.69 81.07C93.61 84.15 93.45 90.3 93.37 93.19C93.32 94.92 91.75 96.2 90.05 95.89C84.01 94.79 68.46 91.96 62.26 90.83Z" id="a6OYZph3F"></path><path d="M137.74 90.83C139.27 90.55 140.6 89.63 141.39 88.29C142.38 86.63 143.75 84.3 144.65 82.78C145.74 80.93 146.36 78.85 146.46 76.71C146.63 72.72 146.93 66 147.09 62.51C147.21 59.72 144.51 57.66 141.85 58.51C138.79 59.49 133.58 61.15 130.14 62.25C127.74 63.02 125.25 63.41 122.73 63.4C119.45 63.39 113.91 63.39 110.75 63.38C108.29 63.38 106.29 65.37 106.28 67.83C106.27 70.01 106.26 73.74 106.25 76.33C106.25 76.33 106.31 81.07 106.31 81.07C106.39 84.15 106.55 90.3 106.63 93.19C106.68 94.92 108.25 96.2 109.95 95.89C115.99 94.79 131.54 91.96 137.74 90.83Z" id="a2VkVp0ts"></path></defs><g><g><g><use xlink:href="#d27VMQowWa" opacity="1" fill="#b7b7b7" fill-opacity="1"></use><g clip-path="url(#clipa3FfQFqvpi)"><use xlink:href="#d27VMQowWa" opacity="1" fill-opacity="0" stroke="#7e7e7e" stroke-width="6" stroke-opacity="1"></use></g></g><g><use xlink:href="#akrejDg7G" opacity="1" fill="#b7b7b7" fill-opacity="1"></use><g mask="url(#maskfaD7LCJZe)"><use xlink:href="#akrejDg7G" opacity="1" fill-opacity="0" stroke="#7e7e7e" stroke-width="6" stroke-opacity="1"></use></g></g><g><use xlink:href="#gKTO5jwGS" opacity="1" fill="#ffe8b3" fill-opacity="1"></use><g clip-path="url(#clipd4IZsfVyp)"><use xlink:href="#gKTO5jwGS" opacity="1" fill-opacity="0" stroke="#72674d" stroke-width="6" stroke-opacity="1"></use></g><g><use xlink:href="#gKTO5jwGS" opacity="1" fill-opacity="0" stroke="#7e7e7e" stroke-width="3" stroke-opacity="1"></use></g></g><g><use xlink:href="#bgtBdSWjO" opacity="1" fill="#ffe8b3" fill-opacity="1"></use><g clip-path="url(#clipd2JRdaXk4w)"><use xlink:href="#bgtBdSWjO" opacity="1" fill-opacity="0" stroke="#72674d" stroke-width="6" stroke-opacity="1"></use></g><g><use xlink:href="#bgtBdSWjO" opacity="1" fill-opacity="0" stroke="#7e7e7e" stroke-width="3" stroke-opacity="1"></use></g></g><g><g><use xlink:href="#c3CJL33Jx0" opacity="1" fill-opacity="0" stroke="#7e7e7e" stroke-width="3" stroke-opacity="1"></use></g></g><g><use xlink:href="#a1cF3SMQtN" opacity="1" fill="#636363" fill-opacity="1"></use><g><use xlink:href="#a1cF3SMQtN" opacity="1" fill-opacity="0" stroke="#7e7e7e" stroke-width="4" stroke-opacity="1"></use></g></g><g><use xlink:href="#c15UUPJFNU" opacity="1" fill="#636363" fill-opacity="1"></use><g><use xlink:href="#c15UUPJFNU" opacity="1" fill-opacity="0" stroke="#7e7e7e" stroke-width="4" stroke-opacity="1"></use></g></g><g><use xlink:href="#bqhUworXN" opacity="1" fill="#636363" fill-opacity="1"></use><g><use xlink:href="#bqhUworXN" opacity="1" fill-opacity="0" stroke="#7e7e7e" stroke-width="4" stroke-opacity="1"></use></g></g><g><use xlink:href="#c5kojMiBVN" opacity="1" fill="#636363" fill-opacity="1"></use><g><use xlink:href="#c5kojMiBVN" opacity="1" fill-opacity="0" stroke="#7e7e7e" stroke-width="4" stroke-opacity="1"></use></g></g><g><use xlink:href="#b2LlcoAsg" opacity="1" fill="#636363" fill-opacity="1"></use><g><use xlink:href="#b2LlcoAsg" opacity="1" fill-opacity="0" stroke="#7e7e7e" stroke-width="4" stroke-opacity="1"></use></g></g><g><use xlink:href="#a9Bz8OeUR" opacity="1" fill="#636363" fill-opacity="1"></use><g><use xlink:href="#a9Bz8OeUR" opacity="1" fill-opacity="0" stroke="#7e7e7e" stroke-width="4" stroke-opacity="1"></use></g></g><g><use xlink:href="#ecy5nS3l" opacity="1" fill="#636363" fill-opacity="1"></use><g><use xlink:href="#ecy5nS3l" opacity="1" fill-opacity="0" stroke="#7e7e7e" stroke-width="4" stroke-opacity="1"></use></g></g><g><use xlink:href="#b9JlpEvgVV" opacity="1" fill="#636363" fill-opacity="1"></use><g><use xlink:href="#b9JlpEvgVV" opacity="1" fill-opacity="0" stroke="#7e7e7e" stroke-width="4" stroke-opacity="1"></use></g></g><g><use xlink:href="#a6OYZph3F" opacity="1" fill="#636363" fill-opacity="1"></use><g><use xlink:href="#a6OYZph3F" opacity="1" fill-opacity="0" stroke="#7e7e7e" stroke-width="4" stroke-opacity="1"></use></g></g><g><use xlink:href="#a2VkVp0ts" opacity="1" fill="#636363" fill-opacity="1"></use><g><use xlink:href="#a2VkVp0ts" opacity="1" fill-opacity="0" stroke="#7e7e7e" stroke-width="4" stroke-opacity="1"></use></g></g></g></g></svg>