<?xml version="1.0" standalone="no"?>
<!DOCTYPE svg PUBLIC "-//W3C//DTD SVG 20010904//EN"
 "http://www.w3.org/TR/2001/REC-SVG-20010904/DTD/svg10.dtd">
<svg version="1.0" xmlns="http://www.w3.org/2000/svg"
 width="260.000000pt" height="259.000000pt" viewBox="0 0 260.000000 259.000000"
 preserveAspectRatio="xMidYMid meet">
<metadata>
Created by potrace 1.15, written by Peter Selinger 2001-2017
</metadata>
<g transform="translate(0.000000,259.000000) scale(0.100000,-0.100000)"
fill="#000000" stroke="none">
<path d="M0 2369 l0 -219 41 -38 c23 -20 49 -41 59 -47 10 -5 41 -30 70 -55
62 -54 77 -63 83 -52 5 8 127 405 154 502 8 30 18 60 21 65 4 6 7 15 8 20 1 6
5 18 9 28 6 15 1 17 -43 17 -41 0 -54 -4 -67 -22 l-17 -23 7 23 c6 21 3 22
-39 22 -30 0 -46 -4 -46 -12 0 -10 -2 -10 -8 0 -6 9 -39 12 -120 11 l-112 -2
0 -218z"/>
<path d="M471 2568 c-30 -77 -42 -112 -66 -193 -15 -49 -56 -174 -91 -277 -36
-107 -57 -185 -50 -182 10 4 117 -72 151 -108 27 -28 -52 7 -113 51 -138 98
-277 204 -289 220 -10 13 -12 -3 -13 -91 0 -93 2 -107 17 -112 44 -13 312 -75
351 -81 24 -4 41 -9 38 -12 -5 -5 -203 27 -323 52 -37 8 -71 15 -75 15 -5 0
-8 -33 -8 -74 l0 -74 110 -82 c60 -45 110 -86 110 -92 0 -5 4 -7 9 -4 18 11
30 -18 16 -38 -13 -17 -20 -13 -106 58 -51 42 -93 75 -94 73 -1 -1 -5 -15 -9
-31 -6 -26 -5 -28 9 -16 8 7 18 11 21 8 2 -3 -6 -12 -19 -21 -43 -28 -47 -76
-47 -518 0 -370 2 -414 17 -431 15 -16 15 -18 0 -18 -14 0 -16 -31 -17 -295
l0 -295 39 0 c22 0 43 5 46 10 3 6 11 10 16 10 6 0 7 -5 4 -10 -4 -6 12 -10
39 -10 34 0 46 4 46 15 0 8 5 15 11 15 6 0 8 -7 5 -15 -5 -14 11 -15 121 -13
l126 3 16 47 c9 26 19 50 23 54 5 4 8 17 8 28 1 12 9 44 19 73 17 49 17 53 0
85 -10 18 -18 27 -19 21 0 -7 -5 -13 -11 -13 -6 0 -8 11 -4 28 3 17 0 40 -9
58 -14 26 -14 29 2 36 15 6 14 7 -4 7 -15 1 -28 17 -50 64 -15 34 -29 67 -29
74 0 6 -4 15 -9 20 -5 5 -6 2 -1 -6 5 -9 4 -12 -3 -7 -7 4 -12 14 -12 23 0 9
-3 14 -6 10 -3 -3 -17 -2 -31 4 -13 5 -22 5 -19 1 3 -5 -11 -9 -32 -10 -20 -1
-66 -4 -102 -7 -56 -6 -69 -4 -89 12 -23 19 -19 19 335 31 198 7 388 15 424
19 36 3 62 2 59 -1 -6 -6 -187 -24 -427 -41 -79 -6 -91 -9 -81 -22 7 -7 18
-12 25 -9 7 3 16 1 19 -4 4 -6 1 -10 -4 -10 -6 0 -11 -5 -11 -11 0 -6 6 -9 13
-6 14 5 43 -31 33 -40 -3 -3 -8 2 -12 11 -3 9 -10 16 -15 16 -6 0 2 -20 16
-43 14 -24 22 -47 17 -52 -4 -4 1 -5 11 -2 10 4 27 2 39 -4 15 -8 22 -7 32 6
7 9 19 16 27 14 17 -4 49 6 114 36 81 38 180 76 170 66 -6 -5 -62 -32 -125
-61 -63 -28 -132 -60 -153 -71 -43 -22 -68 -24 -85 -7 -8 8 -12 8 -12 1 0 -16
96 -247 142 -340 l41 -84 289 1 c158 1 286 5 283 10 -9 14 35 18 49 4 16 -16
50 -19 41 -4 -3 6 -1 10 4 10 6 0 11 -4 11 -10 0 -15 97 -12 104 3 5 9 7 9 12
0 3 -8 25 -13 55 -13 l49 0 1 208 c1 169 3 200 12 167 7 -23 11 -111 10 -208
l-2 -167 499 0 500 0 -1 294 -1 293 -29 1 c-16 0 -29 -4 -29 -11 0 -8 -3 -8
-11 0 -6 6 -18 9 -25 6 -13 -5 -19 8 -15 30 1 5 -3 5 -9 2 -6 -4 -9 -13 -6
-21 4 -11 -7 -14 -52 -15 -55 0 -56 -1 -34 -16 12 -8 22 -21 22 -27 0 -6 9
-29 19 -51 11 -22 33 -67 49 -101 16 -34 38 -74 48 -89 l19 -29 -52 28 c-33
18 -50 33 -46 42 3 7 -4 33 -15 56 -10 24 -31 75 -46 114 l-28 71 -41 -6 c-54
-8 -69 -7 -84 2 -6 4 -15 2 -19 -4 -5 -8 -3 -9 7 -4 11 7 12 6 3 -6 -6 -8 -16
-66 -23 -129 -14 -122 -17 -148 -27 -195 -11 -57 -15 -65 -37 -65 -13 0 -17 3
-11 8 6 4 14 23 17 42 3 19 14 78 25 130 11 52 22 121 25 153 l6 59 -25 -27
c-14 -15 -27 -25 -29 -23 -3 2 16 24 40 48 25 24 45 40 45 36 0 -5 6 -4 13 2
16 14 194 35 209 26 7 -4 8 -2 4 4 -4 7 -18 12 -31 12 -13 0 -26 3 -28 8 -3 4
25 8 62 9 50 1 58 -1 31 -6 -28 -6 -31 -9 -17 -15 9 -5 26 -6 37 -3 11 3 20 2
20 -1 0 -4 16 -7 35 -8 l35 0 -1 410 0 411 -35 -115 c-95 -314 -156 -491 -167
-487 -15 4 -22 48 -10 56 11 7 58 136 147 405 59 176 66 207 66 276 l0 78 -90
73 c-131 106 -111 118 25 15 l60 -45 3 66 c2 36 1 71 -1 78 -3 6 -41 17 -86
25 -45 7 -81 18 -81 22 0 5 -4 7 -9 3 -13 -7 -169 24 -203 42 -36 18 -37 37
-2 29 14 -4 96 -22 183 -41 86 -19 166 -37 179 -40 l23 -6 -2 121 c0 68 -5
120 -11 120 -5 0 -6 -4 -3 -10 3 -5 2 -10 -4 -10 -5 0 -12 14 -16 30 -4 17
-10 30 -13 30 -4 0 -29 18 -56 40 -35 29 -52 37 -61 30 -13 -11 -25 -3 -25 17
0 22 18 15 93 -34 39 -27 77 -52 84 -56 10 -6 13 35 13 212 l0 221 -500 0
-500 0 0 -257 c0 -141 -3 -254 -6 -250 -7 6 -9 89 -12 355 l-2 152 -150 0
c-128 0 -152 -2 -157 -16 -5 -13 -7 -13 -14 -2 -6 10 -68 14 -289 16 l-282 3
7 -23 c8 -26 23 -59 89 -201 25 -54 41 -95 36 -92 -7 4 -131 249 -135 265 0 3
-6 15 -13 28 -12 20 -20 22 -103 22 -84 0 -90 -1 -98 -22z m66 -190 c-4 -68
-9 -134 -12 -148 -2 -13 -5 -40 -6 -60 -3 -99 -23 -256 -33 -262 -7 -5 -7 -8
-1 -8 7 0 9 -26 7 -70 -4 -58 -1 -75 14 -91 10 -11 24 -17 33 -14 12 5 13 3 5
-5 -9 -9 -17 -9 -34 0 -12 6 -23 10 -24 8 -1 -2 -8 -15 -16 -30 -18 -38 -34
-35 -26 5 3 17 10 79 16 137 5 58 23 218 40 355 16 138 30 262 30 278 0 15 3
27 7 27 3 0 3 -55 0 -122z m723 -259 c14 -11 63 -46 110 -78 116 -80 161 -117
152 -126 -4 -5 -2 -5 5 -1 11 6 64 -24 96 -55 8 -8 23 -20 33 -27 136 -90 194
-139 194 -164 0 -14 -24 0 -101 59 -56 43 -121 92 -144 108 -70 50 -385 296
-385 301 0 9 16 2 40 -17z m570 -63 c41 -4 90 -9 108 -13 26 -4 32 -2 32 12 0
12 5 15 18 10 9 -4 32 -11 50 -17 17 -5 32 -13 32 -18 0 -8 -32 -2 -72 15 -10
4 -18 3 -18 -3 0 -5 32 -20 70 -32 42 -13 75 -30 81 -41 11 -21 3 -24 -33 -10
-13 5 -41 11 -63 15 -22 3 -51 8 -65 12 -32 7 -222 44 -232 44 -4 0 -7 11 -6
24 2 16 6 22 13 17 5 -5 44 -11 85 -15z m-10 -231 c52 -8 138 -21 190 -29 52
-8 103 -17 113 -21 11 -5 17 -3 15 3 -2 5 2 10 7 10 6 0 9 -4 7 -9 -1 -5 6 -9
15 -10 10 0 27 -3 38 -5 33 -8 56 -12 140 -24 95 -14 120 -18 120 -21 0 -1 12
-2 27 -3 34 -2 47 -14 28 -26 -9 -6 -20 -4 -29 3 -12 9 -13 9 -7 0 10 -18 -58
-17 -73 1 -6 7 -28 16 -49 19 -20 3 -68 13 -107 21 -63 14 -217 43 -270 51
-11 1 -51 8 -90 15 -38 7 -101 18 -140 25 -98 17 -50 17 65 0z m170 -241 c148
-111 216 -158 223 -156 5 1 7 -8 5 -20 -2 -19 -8 -23 -33 -20 l-30 2 25 -14
c14 -9 21 -15 17 -16 -12 0 -49 21 -66 38 -13 13 -12 14 9 8 l25 -7 -25 20
c-14 11 -30 21 -37 21 -6 0 -13 4 -15 10 -2 5 -9 6 -17 1 -11 -7 -7 -12 15
-25 16 -8 24 -15 18 -16 -16 0 -49 27 -49 42 0 7 -10 13 -22 14 -24 1 -117 77
-101 83 6 2 21 -9 34 -25 22 -28 23 -28 24 -6 0 12 -3 21 -8 20 -14 -5 -82 73
-82 93 0 22 -7 26 90 -47z m-1524 19 c-2 -16 -8 -49 -11 -75 -4 -33 -11 -48
-21 -48 -8 0 -12 -5 -9 -10 4 -6 10 -8 15 -5 6 3 8 -22 5 -60 -4 -62 -3 -65
20 -71 35 -9 34 -43 0 -36 -25 4 -31 -6 -26 -45 1 -7 -7 -13 -19 -13 -18 0
-20 6 -20 81 0 66 -3 80 -14 76 -8 -3 -17 1 -20 8 -6 16 9 29 23 21 5 -3 12 1
15 10 4 12 1 14 -14 9 -11 -4 -20 -2 -20 4 0 10 12 15 31 13 7 -1 3 73 -6 90
-3 7 0 5 8 -5 13 -16 15 -16 15 8 0 22 35 75 50 75 2 0 1 -12 -2 -27z m853
-539 c2 -179 -1 -270 -9 -279 -8 -9 -7 -14 4 -18 16 -6 328 173 334 192 3 10
0 12 -12 8 -9 -4 -23 -10 -30 -13 -13 -5 -13 -2 -3 20 7 14 14 21 15 16 2 -6
8 -10 13 -10 5 0 3 13 -5 29 -15 29 -15 29 9 17 13 -6 20 -12 15 -14 -12 -4
11 -42 25 -42 6 0 28 12 50 26 l40 25 -42 -38 -42 -38 24 -44 c24 -42 33 -77
17 -67 -5 3 -19 25 -32 50 -26 51 -36 55 -73 26 -14 -11 -28 -20 -31 -20 -9 0
-161 -104 -164 -112 -2 -5 -9 -8 -15 -8 -7 0 -20 -7 -30 -14 -16 -13 -15 -15
20 -36 21 -13 44 -23 51 -23 6 0 12 -7 12 -15 0 -9 3 -12 7 -9 3 4 21 -4 39
-18 18 -14 40 -25 48 -25 9 0 16 -5 16 -10 0 -6 16 -18 35 -27 19 -9 35 -20
35 -25 0 -4 7 -8 15 -8 7 0 18 -6 22 -14 4 -8 11 -15 16 -15 19 -2 47 -28 47
-43 0 -10 -1 -18 -3 -18 -2 0 -46 28 -99 63 -53 34 -129 83 -169 108 -173 110
-434 280 -444 290 -5 6 24 -9 65 -33 41 -25 82 -48 90 -52 8 -4 35 -18 60 -31
l45 -25 6 28 c4 15 7 136 8 270 0 133 5 242 10 242 4 0 9 -120 10 -266z m789
121 c0 -27 101 -245 113 -245 4 0 21 39 38 88 17 48 28 74 24 57 -3 -16 -7
-41 -7 -55 -1 -14 -7 -31 -13 -38 -7 -7 -13 -24 -13 -36 0 -22 3 -23 50 -19
30 2 50 0 50 -7 0 -6 -24 -10 -55 -10 -67 0 -67 -3 -20 -99 32 -65 55 -84 55
-46 0 22 15 25 37 10 20 -14 20 -17 6 -65 -14 -47 -14 -53 3 -71 16 -18 16
-19 -9 -19 -15 0 -27 5 -27 11 0 6 -7 9 -14 6 -9 -4 -13 -1 -10 6 2 7 -13 51
-34 97 -41 89 -61 133 -108 240 -16 36 -43 94 -60 130 -23 47 -28 67 -20 77 6
7 12 12 12 13 1 0 2 -11 2 -25z m-588 -626 c0 -12 4 -17 11 -13 8 4 8 0 0 -15
-7 -12 -9 -26 -6 -32 4 -5 2 -16 -4 -23 -6 -7 -16 -102 -23 -213 l-12 -199
-28 4 c-15 2 -28 9 -28 15 0 26 25 77 36 73 13 -5 12 25 -1 57 -4 10 -3 17 4
17 6 0 10 25 10 68 0 37 2 79 6 95 l7 27 -60 0 c-34 0 -64 5 -68 11 -4 7 14
10 60 7 l66 -3 0 73 c0 57 3 72 15 72 8 0 15 -9 15 -21z m591 -97 c-22 -28
-27 -42 -19 -50 8 -8 5 -9 -9 -6 -26 7 -92 -70 -69 -79 10 -4 13 -1 9 9 -4 10
0 12 11 8 9 -3 16 -13 16 -20 0 -8 8 -17 18 -21 9 -3 25 -13 34 -21 14 -12 20
-12 33 -2 10 8 15 9 15 1 0 -6 -4 -11 -10 -11 -5 0 -10 -9 -10 -19 0 -11 -5
-23 -10 -26 -6 -4 -8 -11 -4 -17 3 -5 -8 -2 -25 6 -17 9 -31 23 -31 30 0 15
-57 33 -67 22 -4 -3 3 -6 15 -6 20 0 21 -4 16 -37 -7 -46 -11 -53 -29 -53 -10
0 -13 11 -10 43 3 25 1 37 -4 29 -5 -9 -8 -2 -7 20 1 18 -3 33 -9 33 -5 0 -9
-3 -8 -7 4 -10 -54 21 -67 37 -7 8 -16 12 -21 9 -5 -3 -9 0 -9 5 0 17 13 13
50 -14 42 -31 44 -31 24 0 -9 14 -23 25 -31 25 -8 0 -12 4 -9 9 3 5 -4 12 -17
15 -33 9 -75 51 -83 83 l-7 28 24 -21 c13 -12 39 -29 57 -38 18 -10 37 -27 42
-39 5 -12 9 -16 9 -9 1 10 7 10 29 -1 29 -14 66 -12 56 4 -3 5 -1 8 3 7 5 -2
36 23 68 55 33 31 61 57 63 57 2 0 -10 -17 -27 -38z"/>
<path d="M537 142 c-10 -26 -26 -68 -37 -94 l-18 -48 84 0 c64 0 84 3 84 14 0
10 -13 12 -51 9 -33 -2 -49 0 -44 7 3 5 22 10 42 10 30 0 34 3 28 18 -5 9 -8
25 -9 34 0 9 -3 15 -7 12 -10 -6 -20 26 -12 38 3 7 1 8 -5 4 -7 -4 -12 -1 -12
8 0 9 -5 16 -11 16 -5 0 -7 5 -4 10 3 6 3 10 -2 10 -4 0 -16 -21 -26 -48z"/>
</g>
</svg>
